HIERARCHY
ROOT Hips
{
	OFFSET 0.000000 0.000000 0.000000
	CHANNELS 6 Xposition Yposition Zposition Yrotation Xrotation Zrotation
	JOINT Chest
	{
		OFFSET 0.000000 -0.009281 11.569106
		CHANNELS 3 Yrotation Xrotation Zrotation
		JOINT Chest2
		{
			OFFSET -0.000000 0.016865 9.269641
			CHANNELS 3 Yrotation Xrotation Zrotation
			JOINT Chest3
			{
				OFFSET -0.000000 0.000001 8.374491
				CHANNELS 3 Yrotation Xrotation Zrotation
				JOINT Chest4
				{
					OFFSET -0.000000 0.000001 8.374493
					CHANNELS 3 Yrotation Xrotation Zrotation
					JOINT Neck
					{
						OFFSET -0.000000 0.000002 12.152554
						CHANNELS 3 Yrotation Xrotation Zrotation
						JOINT Head
						{
							OFFSET -0.000000 0.040101 7.802319
							CHANNELS 3 Yrotation Xrotation Zrotation
							End Site
							{
								OFFSET -0.000000 0.020947 14.853096
							}
						}
					}
					JOINT RightCollar
					{
						OFFSET 2.894404 0.000001 6.791374
						CHANNELS 3 Yrotation Xrotation Zrotation
						JOINT RightShoulder
						{
							OFFSET 13.574684 0.000001 0.000000
							CHANNELS 3 Yrotation Xrotation Zrotation
							JOINT RightElbow
							{
								OFFSET 23.923903 0.000002 0.000000
								CHANNELS 3 Yrotation Xrotation Zrotation
								JOINT RightWrist
								{
									OFFSET 19.846718 0.012767 0.000000
									CHANNELS 3 Yrotation Xrotation Zrotation
									End Site
									{
										OFFSET 14.973145 0.000001 0.000000
									}
								}
							}
						}
					}
					JOINT LeftCollar
					{
						OFFSET -2.894404 0.000001 6.791374
						CHANNELS 3 Yrotation Xrotation Zrotation
						JOINT LeftShoulder
						{
							OFFSET -13.574684 -0.000001 0.000000
							CHANNELS 3 Yrotation Xrotation Zrotation
							JOINT LeftElbow
							{
								OFFSET -23.923903 -0.000002 0.000000
								CHANNELS 3 Yrotation Xrotation Zrotation
								JOINT LeftWrist
								{
									OFFSET -19.846718 0.012763 0.000000
									CHANNELS 3 Yrotation Xrotation Zrotation
									End Site
									{
										OFFSET -14.973145 -0.000001 0.000000
									}
								}
							}
						}
					}
				}
			}
		}
	}
	JOINT RightHip
	{
		OFFSET 9.469263 0.004643 0.045487
		CHANNELS 3 Yrotation Xrotation Zrotation
		JOINT RightKnee
		{
			OFFSET 0.000000 0.002661 -40.478676
			CHANNELS 3 Yrotation Xrotation Zrotation
			JOINT RightAnkle
			{
				OFFSET 0.000000 0.049106 -35.224068
				CHANNELS 3 Yrotation Xrotation Zrotation
				JOINT RightToe
				{
					OFFSET -0.000001 12.539529 -6.151390
					CHANNELS 3 Yrotation Xrotation Zrotation
					End Site
					{
						OFFSET -0.000001 5.044994 -1.291870
					}
				}
			}
		}
	}
	JOINT LeftHip
	{
		OFFSET -9.469263 0.004641 0.045487
		CHANNELS 3 Yrotation Xrotation Zrotation
		JOINT LeftKnee
		{
			OFFSET 0.000000 0.002661 -40.478676
			CHANNELS 3 Yrotation Xrotation Zrotation
			JOINT LeftAnkle
			{
				OFFSET 0.000000 0.049106 -35.224068
				CHANNELS 3 Yrotation Xrotation Zrotation
				JOINT LeftToe
				{
					OFFSET -0.000001 12.539529 -6.151390
					CHANNELS 3 Yrotation Xrotation Zrotation
					End Site
					{
						OFFSET -0.000001 5.044994 -1.291870
					}
				}
			}
		}
	}
}
MOTION
Frames: 12
Frame Time: 0.016667
39.968845 -4.026803 82.597656 4.952290 2.291182 -100.223081 -5.640439 -5.146921 -1.125867 -2.306435 -2.398739 -0.429300 -2.306434 -2.398740 -0.429299 -1.731260 -1.797467 -0.330988 4.984074 -20.523762 -4.108381 7.834008 -1.856419 -5.979133 7.505501 -0.446967 -2.618330 50.056530 -19.823741 -1.286072 23.826376 -40.056276 38.584606 -28.461878 38.371053 66.891178 -7.392179 2.280137 -3.329954 -38.801932 -5.613322 11.095160 -37.253771 -58.186614 -24.473965 16.425152 13.509636 -61.322197 4.778382 7.799513 -19.919789 1.921981 -0.017456 -12.740624 6.774951 0.210755 22.332699 -0.507749 -0.341153 0.032363 -13.501103 21.836007 -14.984218 -1.956960 -2.154643 11.047996 3.810891 -7.282757 7.560014 -0.442623 -0.093001 -0.068949 
40.085747 -4.148812 82.578354 5.044802 2.215884 -100.392340 -5.729022 -5.094493 -1.210336 -2.306707 -2.392801 -0.430815 -2.306709 -2.392802 -0.430816 -1.731467 -1.793007 -0.332108 5.006080 -20.532787 -4.027547 7.898442 -1.875416 -5.825925 7.506119 -0.452432 -2.647569 50.073193 -19.793676 -1.288256 23.916852 -40.138184 38.495100 -28.465881 38.348312 66.895556 -7.418112 2.306929 -3.342329 -38.755668 -5.554677 11.186519 -37.228523 -58.235955 -24.482458 16.431600 13.497378 -61.335194 4.906395 7.802764 -19.932001 2.034815 -0.121770 -12.475008 6.695236 0.383983 22.321690 -0.389256 -0.301352 0.035889 -13.321789 21.923615 -14.935179 -1.960628 -2.269749 11.135659 3.964218 -7.206063 7.568051 -0.524281 -0.203389 -0.074431 
40.251621 -4.323177 82.545380 4.979453 1.943521 -100.560301 -5.660720 -5.210237 -1.282014 -2.303047 -2.385371 -0.430634 -2.303049 -2.385374 -0.430635 -1.728718 -1.787434 -0.331927 5.018724 -20.536586 -3.948505 7.945222 -1.884829 -5.678616 7.515520 -0.453654 -2.669649 50.098352 -19.738750 -1.316601 23.996983 -40.229903 38.391489 -28.466142 38.340632 66.912706 -7.448813 2.319553 -3.353933 -38.713792 -5.528545 11.259863 -37.216140 -58.263365 -24.465603 16.447912 13.500797 -61.368826 5.248912 7.616615 -19.883581 2.119674 -0.315476 -12.356889 6.533312 0.633844 22.253979 -0.234829 -0.211382 0.125915 -12.954705 21.932484 -14.736411 -1.969571 -2.372647 11.288763 4.077402 -7.417283 7.363011 -0.561220 -0.135997 -0.073270 
40.491245 -4.558897 82.495117 4.887049 1.541945 -100.875822 -5.489953 -5.340792 -1.202374 -2.295422 -2.376893 -0.430203 -2.295422 -2.376896 -0.430201 -1.722993 -1.781083 -0.331542 5.018798 -20.536357 -3.870556 7.968758 -1.886871 -5.536904 7.532721 -0.499257 -2.669986 50.115984 -19.664453 -1.332443 24.055943 -40.307945 38.297308 -28.468290 38.360671 66.938955 -7.463203 2.301193 -3.341917 -38.705333 -5.540903 11.291800 -37.182669 -58.236078 -24.456389 16.458055 13.498931 -61.401809 5.728560 7.338951 -19.651498 2.216827 -0.566050 -12.223787 6.379301 0.958682 22.069835 -0.114268 -0.099134 0.140755 -12.402455 22.062780 -14.289023 -1.974607 -2.450691 11.508525 4.176163 -7.931233 7.206290 -0.568319 0.096621 -0.055043 
40.789005 -4.823357 82.430992 4.844005 1.123478 -101.264357 -5.306619 -5.403034 -1.041752 -2.284715 -2.368803 -0.428471 -2.284715 -2.368804 -0.428471 -1.714954 -1.775029 -0.330172 5.010656 -20.528533 -3.795368 7.976432 -1.874809 -5.402388 7.548168 -0.543275 -2.682779 50.125860 -19.632452 -1.342963 24.114347 -40.347143 38.203014 -28.466854 38.400092 66.973748 -7.456624 2.264179 -3.342963 -38.734396 -5.557900 11.319581 -37.097107 -58.196873 -24.488284 16.477292 13.499913 -61.411556 6.233097 7.062979 -19.403488 2.334822 -0.834455 -11.976786 6.231219 1.261561 22.190175 -0.039639 0.025036 0.088683 -11.795634 22.286286 -13.743830 -1.983646 -2.527340 11.767767 4.274619 -8.505863 7.089868 -0.556801 0.365432 -0.033596 
41.113319 -5.093402 82.358101 4.848190 0.766133 -101.589263 -5.168539 -5.402401 -0.936913 -2.272273 -2.358034 -0.427769 -2.272274 -2.358033 -0.427770 -1.705616 -1.766965 -0.329557 4.997560 -20.518575 -3.722368 7.974436 -1.858740 -5.273227 7.569631 -0.563448 -2.701241 50.118869 -19.638991 -1.375299 24.180321 -40.356354 38.112838 -28.467158 38.423216 67.005979 -7.452132 2.235822 -3.361037 -38.772781 -5.564294 11.363019 -37.016634 -58.161397 -24.514415 16.496847 13.496313 -61.403168 6.659650 6.816821 -19.284482 2.477033 -1.130884 -11.707313 6.097536 1.727287 22.121388 0.041698 0.056572 0.055392 -11.278686 22.550245 -13.305401 -1.988266 -2.637372 12.052328 4.391117 -8.928918 7.043533 -0.544945 0.515233 -0.022860 
41.450008 -5.359482 82.279839 4.871032 0.459584 -101.865086 -5.074017 -5.360473 -0.871695 -2.258088 -2.346247 -0.427793 -2.258088 -2.346248 -0.427795 -1.694973 -1.758134 -0.329482 4.985738 -20.509281 -3.651613 7.974102 -1.843867 -5.147803 7.598315 -0.557016 -2.727284 50.093366 -19.642786 -1.420205 24.244103 -40.380625 38.018670 -28.461277 38.434858 67.029858 -7.464840 2.252602 -3.387202 -38.804436 -5.584243 11.429528 -36.982251 -58.129910 -24.487309 16.525772 13.493563 -61.396400 7.021216 6.618612 -19.216163 2.628515 -1.495624 -11.437837 5.969138 2.272840 21.979448 0.109151 0.060406 0.032239 -10.820898 22.832569 -12.947942 -1.999739 -2.766088 12.316328 4.504211 -9.281126 6.993423 -0.535485 0.598455 -0.018954 
41.784508 -5.622333 82.197037 4.876103 0.178174 -102.101930 -5.004012 -5.306100 -0.835516 -2.238564 -2.333034 -0.427410 -2.238564 -2.333034 -0.427409 -1.680323 -1.748239 -0.329070 4.975002 -20.499052 -3.587043 7.973891 -1.827095 -5.033243 7.611551 -0.554041 -2.761519 50.059672 -19.610667 -1.461601 24.330481 -40.440157 37.902974 -28.444176 38.440373 67.062991 -7.492646 2.246103 -3.426934 -38.830285 -5.569606 11.485527 -36.970848 -58.101127 -24.416087 16.553208 13.503075 -61.400320 7.322781 6.450849 -19.149506 2.800991 -1.944824 -11.182255 5.826750 2.831385 21.853865 0.160520 0.081208 0.028911 -10.382731 23.112607 -12.633809 -2.040233 -2.890114 12.567594 4.599581 -9.626332 6.977636 -0.505806 0.651128 -0.019707 
42.118904 -5.883322 82.109489 4.850095 -0.110816 -102.327203 -4.930706 -5.266216 -0.803254 -2.210415 -2.327155 -0.423875 -2.210415 -2.327156 -0.423875 -1.659197 -1.743864 -0.326289 4.961761 -20.476339 -3.529854 7.966815 -1.786904 -4.932360 7.613627 -0.559531 -2.768706 50.005591 -19.527118 -1.486743 24.425969 -40.507926 37.792581 -28.430787 38.459890 67.090435 -7.538971 2.278858 -3.436504 -38.869828 -5.597239 11.520675 -36.899855 -58.053131 -24.376310 16.576377 13.520157 -61.394952 7.609918 6.272526 -19.132859 2.976282 -2.451871 -10.907406 5.706472 3.413643 21.752677 0.185468 0.094328 0.026823 -9.950789 23.354765 -12.308732 -2.082965 -2.968739 12.809038 4.677296 -10.017837 6.932593 -0.450888 0.701195 -0.025989 
42.464615 -6.144346 82.017105 4.785321 -0.408540 -102.540004 -4.855850 -5.243195 -0.772731 -2.178453 -2.325761 -0.415444 -2.178454 -2.325763 -0.415443 -1.635199 -1.742869 -0.319839 4.949141 -20.448722 -3.484108 7.957412 -1.737242 -4.851886 7.622323 -0.550106 -2.774349 49.938614 -19.484761 -1.519317 24.516568 -40.528410 37.715345 -28.422480 38.481566 67.116765 -7.552861 2.287373 -3.441361 -38.958535 -5.608207 11.535039 -36.747282 -57.976121 -24.398209 16.594274 13.523140 -61.375882 7.870176 6.060570 -19.185668 3.182151 -3.015615 -10.695970 5.595976 3.996851 21.891656 0.191291 0.109688 0.027869 -9.524251 23.547400 -11.915850 -2.136769 -2.998817 13.033341 4.736895 -10.441081 6.816688 -0.358471 0.742550 -0.034343 
42.827888 -6.400342 81.920532 4.681139 -0.706411 -102.745470 -4.784315 -5.230109 -0.731380 -2.147173 -2.325943 -0.399673 -2.147172 -2.325944 -0.399673 -1.611681 -1.743078 -0.307894 4.944691 -20.423775 -3.456774 7.957367 -1.691928 -4.802543 7.644366 -0.533529 -2.798949 49.874325 -19.488765 -1.557554 24.579500 -40.513335 37.672397 -28.428296 38.507729 67.124702 -7.541401 2.286281 -3.469562 -39.071571 -5.598279 11.542798 -36.559626 -57.885498 -24.437251 16.608075 13.517941 -61.341321 8.081616 5.834828 -19.210196 3.421751 -3.677919 -10.597528 5.486107 4.627873 22.152537 0.200467 0.125954 0.025390 -9.102868 23.693252 -11.437813 -2.215335 -2.992641 13.253524 4.788718 -10.862912 6.747876 -0.232134 0.771269 -0.041651 
43.192696 -6.654579 81.819435 4.554680 -1.003149 -102.952568 -4.700847 -5.197353 -0.674438 -2.113696 -2.321079 -0.380030 -2.113696 -2.321081 -0.380030 -1.586502 -1.739523 -0.293018 4.941391 -20.413221 -3.447360 7.954133 -1.672659 -4.786003 7.660748 -0.541871 -2.844136 49.799845 -19.493527 -1.573257 24.648350 -40.489075 37.620556 -28.429255 38.532266 67.128766 -7.524816 2.261247 -3.500465 -39.184150 -5.573907 11.531886 -36.386508 -57.788448 -24.458629 16.635402 13.513102 -61.282554 8.264427 5.619775 -19.172280 3.684855 -4.416478 -10.449002 5.305968 5.366614 22.049509 0.258251 0.136708 0.027071 -8.686044 23.833957 -10.905162 -2.313352 -2.997048 13.463841 4.817532 -11.312283 6.708456 -0.088826 0.824050 -0.050004 
